<?xml version="1.0" encoding="iso-8859-1"?>
<!-- Generator: Adobe Illustrator 19.0.0, SVG Export Plug-In . SVG Version: 6.00 Build 0)  -->
<svg version="1.1" id="Layer_1" xmlns="http://www.w3.org/2000/svg" xmlns:xlink="http://www.w3.org/1999/xlink" x="0px" y="0px"
	 viewBox="0 0 469.333 469.333" style="enable-background:new 0 0 469.333 469.333;" xml:space="preserve">

		<g fill="#347ab8">
			<path d="M309.333,362.667H160c-5.896,0-10.667,4.771-10.667,10.667S154.104,384,160,384h149.333
				c5.896,0,10.667-4.771,10.667-10.667S315.229,362.667,309.333,362.667z"/>
			<path d="M245.333,405.333H138.667c-5.896,0-10.667,4.771-10.667,10.667c0,5.896,4.771,10.667,10.667,10.667h106.667
				c5.896,0,10.667-4.771,10.667-10.667C256,410.104,251.229,405.333,245.333,405.333z"/>
			<path d="M426.667,192h-21.333v-74.667c0-5.896-4.771-10.667-10.667-10.667H384V96c0-1.426-0.29-2.818-0.828-4.105
				c-0.542-1.301-1.328-2.47-2.31-3.449L295.555,3.138c-0.979-0.982-2.148-1.768-3.449-2.31C290.818,0.29,289.426,0,288,0H128
				c-23.521,0-42.667,19.135-42.667,42.667v64H74.667c-5.896,0-10.667,4.771-10.667,10.667V192H42.667
				C19.146,192,0,211.135,0,234.667v106.667C0,364.865,19.146,384,42.667,384h17.945l-14.758,33.208
				c-2.104,4.76-3.188,9.833-3.188,15.063c0,20.438,16.625,37.063,37.063,37.063h309.875c20.438,0,37.063-16.625,37.063-37.063
				c0-5.229-1.083-10.302-3.188-15.063L408.708,384h17.958c23.521,0,42.667-19.135,42.667-42.667V234.667
				C469.333,211.135,450.188,192,426.667,192z M106.667,42.667c0-11.76,9.563-21.333,21.333-21.333h149.333V64
				c0,23.531,19.146,42.667,42.667,42.667h42.667V192h-256V42.667z M373.063,356.333l30.917,69.542
				c0.896,2.021,1.354,4.167,1.354,6.396c0,8.677-7.063,15.729-15.729,15.729H79.729C71.062,448,64,440.948,64,432.271
				c0-2.229,0.458-4.375,1.354-6.396l30.917-69.542c1.458-3.302,1.167-7.115-0.813-10.146c-1.958-3.031-5.333-4.854-8.938-4.854
				H74.667c-5.875,0-10.667-4.781-10.667-10.667C64,324.781,68.792,320,74.667,320h320c5.875,0,10.667,4.781,10.667,10.667
				c0,5.885-4.792,10.667-10.667,10.667h-11.854c-3.604,0-6.979,1.823-8.938,4.854C371.896,349.219,371.604,353.031,373.063,356.333
				z M405.333,277.333C393.563,277.333,384,267.76,384,256c0-11.76,9.563-21.333,21.333-21.333s21.333,9.573,21.333,21.333
				C426.667,267.76,417.104,277.333,405.333,277.333z"/>
		</g>

</svg>
